<svg xmlns="http://www.w3.org/2000/svg" xmlns:xlink="http://www.w3.org/1999/xlink" id="Layer_1" x="0" y="0" version="1.1" viewBox="0 0 1118.7 1118.7" xml:space="preserve" style="enable-background:new 0 0 1118.7 1118.7"><style type="text/css">.st0{opacity:.6}.st1{fill:none;stroke:#faa21b;stroke-width:2;stroke-miterlimit:10}.st2{fill:#00aeef}</style><g class="st0"><circle cx="561.1" cy="559.1" r="394.7" class="st1"/><circle cx="561.1" cy="559.1" r="278.5" class="st1"/><circle cx="482.6" cy="637.7" r="167.4" class="st1"/><circle cx="572.2" cy="548.5" r="74" class="st2"/><circle cx="297.6" cy="743.4" r="45.1" class="st2"/><circle cx="719.3" cy="637.7" r="21.4" class="st2"/><circle cx="719.3" cy="637.7" r="40.9" class="st1"/><circle cx="561.3" cy="279.4" r="21.4" class="st2"/><circle cx="561.3" cy="279.4" r="40.9" class="st1"/><circle cx="561.3" cy="411.1" r="18.9" class="st1"/><line x1="297.6" x2="162.9" y1="743.4" y2="878" class="st1"/><line x1="794" x2="242.6" y1="406.3" y2="957.7" class="st1"/><line x1="561.3" x2="561.3" y1="161" y2="637.1" class="st1"/><line x1="409" x2="409" y1="325.8" y2="639" class="st1"/><line x1="720.7" x2="872.3" y1="479.7" y2="479.7" class="st1"/><line x1="720.7" x2="949" y1="639" y2="639" class="st1"/><line x1="837.1" x2="919" y1="596.2" y2="596.2" class="st1"/></g></svg>