<svg xmlns="http://www.w3.org/2000/svg" width="1118.716" height="1118.716" viewBox="0 0 1118.716 1118.716"><g id="Group_246" data-name="Group 246" opacity=".6" transform="translate(1697.66 331.139) rotate(135)"><circle id="Ellipse_359" cx="394.526" cy="394.526" r="394.526" fill="none" stroke="#faa21b" stroke-miterlimit="10" stroke-width="2" data-name="Ellipse 359" transform="translate(571.75 249)"/><circle id="Ellipse_360" cx="55.739" cy="55.739" r="55.739" fill="none" stroke="#faa21b" stroke-miterlimit="10" stroke-width="2" data-name="Ellipse 360" transform="translate(797.318 813.355)"/><circle id="Ellipse_361" cx="55.739" cy="55.739" r="55.739" fill="#1aaf94" data-name="Ellipse 361" transform="translate(797.318 643.816)"/><circle id="Ellipse_362" cx="55.739" cy="55.739" r="55.739" fill="#1aaf94" data-name="Ellipse 362" transform="translate(1294.404 643.816)"/><circle id="Ellipse_363" cx="34.837" cy="34.837" r="34.837" fill="#1aaf94" data-name="Ellipse 363" transform="translate(1268.775 552.079)"/><circle id="Ellipse_364" cx="15.096" cy="15.096" r="15.096" fill="#1aaf94" data-name="Ellipse 364" transform="translate(1380.252 571.82)"/><circle id="Ellipse_365" cx="55.739" cy="55.739" r="55.739" fill="#1aaf94" data-name="Ellipse 365" transform="translate(1022.595 643.816)"/><circle id="Ellipse_366" cx="112.639" cy="112.639" r="112.639" fill="none" stroke="#faa21b" stroke-miterlimit="10" stroke-width="2" data-name="Ellipse 366" transform="translate(965.695 249)"/><circle id="Ellipse_367" cx="41.804" cy="41.804" r="41.804" fill="#faa21b" data-name="Ellipse 367" transform="translate(1036.53 319.835)"/><line id="Line_172" x2="732.563" fill="none" stroke="#faa21b" stroke-miterlimit="10" stroke-width="2" data-name="Line 172" transform="translate(740.929 699.627)"/><line id="Line_173" x2="487.904" fill="none" stroke="#faa21b" stroke-miterlimit="10" stroke-width="2" data-name="Line 173" transform="translate(984.881 587.198)"/><line id="Line_174" x2=".707" y2="296.278" fill="none" stroke="#faa21b" stroke-miterlimit="10" stroke-width="2" data-name="Line 174" transform="translate(1078.219 403.35)"/><line id="Line_175" x1=".707" y1="113.844" fill="none" stroke="#faa21b" stroke-miterlimit="10" stroke-width="2" data-name="Line 175" transform="translate(852.652 699.627)"/><circle id="Ellipse_368" cx="34.837" cy="34.837" r="34.837" fill="#faa21b" data-name="Ellipse 368" transform="translate(705.581 439.441)"/><line id="Line_176" x2=".707" y2="190.212" fill="none" stroke="#faa21b" stroke-miterlimit="10" stroke-width="2" data-name="Line 176" transform="translate(740.222 509.416)"/><line id="Line_177" x1=".707" y2="372.645" fill="none" stroke="#faa21b" stroke-miterlimit="10" stroke-width="2" data-name="Line 177" transform="translate(852.652 326.982)"/><circle id="Ellipse_369" cx="18.58" cy="18.58" r="18.58" fill="#1aaf94" data-name="Ellipse 369" transform="translate(721.838 680.975)"/><circle id="Ellipse_370" cx="18.58" cy="18.58" r="18.58" fill="none" stroke="#faa21b" stroke-miterlimit="10" stroke-width="2" data-name="Ellipse 370" transform="translate(834.477 289.643)"/><line id="Line_178" y2="93.338" fill="none" stroke="#faa21b" stroke-miterlimit="10" stroke-width="2" data-name="Line 178" transform="translate(1190.649 606.289)"/><circle id="Ellipse_371" cx="18.58" cy="18.58" r="18.58" fill="#faa21b" data-name="Ellipse 371" transform="translate(1172.393 569.498)"/><line id="Line_179" y1="205.061" fill="none" stroke="#faa21b" stroke-miterlimit="10" stroke-width="2" data-name="Line 179" transform="translate(1022.358 699.627)"/><circle id="Ellipse_372" cx="18.58" cy="18.58" r="18.58" fill="#faa21b" data-name="Ellipse 372" transform="translate(1004.016 905.092)"/></g></svg>