<svg xmlns="http://www.w3.org/2000/svg" viewBox="0 0 911.32 900"><defs><style>.cls-1{opacity:.8}.cls-2{fill:#1aaf94}.cls-3{fill:#faa21b}.cls-4{fill:#9957a3}.cls-5{fill:#da1684}</style></defs><title>Asset 21</title><g id="Layer_2" data-name="Layer 2"><g id="Layer_6" data-name="Layer 6"><g class="cls-1"><circle cx="126.96" cy="115.48" r="16.16" class="cls-2"/><circle cx="238.92" cy="115.48" r="31.16" class="cls-2"/><circle cx="350.87" cy="227.43" r="11.54" class="cls-3"/><circle cx="574.78" cy="339.39" r="18.47" class="cls-4"/><path d="M462.83,702.75A251.39,251.39,0,1,1,640.6,629.12,249.77,249.77,0,0,1,462.83,702.75Zm0-500.92a249.51,249.51,0,1,0,176.43,73.08A247.89,247.89,0,0,0,462.83,201.83Z" class="cls-3"/><circle cx="350.87" cy="563.3" r="23.08" class="cls-3"/><circle cx="238.92" cy="675.26" r="19.62" class="cls-3"/><circle cx="350.87" cy="675.26" r="12.7" class="cls-4"/><circle cx="15" cy="339.39" r="15" class="cls-2"/><circle cx="686.74" cy="227.43" r="66.94" class="cls-5"/><path d="M686.74,340.34a112.91,112.91,0,1,1,112.9-112.91A113,113,0,0,1,686.74,340.34Zm0-223.92a111,111,0,1,0,111,111A111.14,111.14,0,0,0,686.74,116.42Z" class="cls-3"/><circle cx="574.78" cy="563.3" r="13.85" class="cls-3"/><circle cx="686.74" cy="563.3" r="15" class="cls-3"/><circle cx="686.74" cy="675.26" r="15" class="cls-3"/><circle cx="350.87" cy="451.35" r="6.93" class="cls-3"/><circle cx="462.83" cy="787.21" r="6.93" class="cls-4"/><circle cx="238.92" cy="339.39" r="12.7" class="cls-2"/><path d="M462.25,900A447.82,447.82,0,0,1,14.06,451.81V183H16V451.81a445.92,445.92,0,0,0,446.3,446.3Z" class="cls-3"/><path d="M462.25,788.16A335.39,335.39,0,0,1,126.59,452.5h1.89A333.77,333.77,0,0,0,462.25,786.27Z" class="cls-3"/><path d="M351.31,899.17h-1.89V409.75A173.85,173.85,0,0,1,400.68,286l286-286L688,1.34l-286,286a172,172,0,0,0-50.71,122.41Z" class="cls-4"/><rect width="1.89" height="1108.31" x="517.86" y="-46.83" class="cls-3" transform="translate(-206.78 515.44) rotate(-45)"/><rect width="1.89" height="1107.49" x="517.57" y="-158.66" class="cls-5" transform="translate(-127.49 482.36) rotate(-45)"/><rect width="316.66" height="1.89" x="528.41" y="226.49" class="cls-3" transform="translate(40.32 552.21) rotate(-45)"/><rect width="637.4" height="1.89" x="257.53" y="448.96" class="cls-3" transform="translate(-149.36 539.23) rotate(-45)"/></g></g></g></svg>