<svg xmlns="http://www.w3.org/2000/svg" xmlns:xlink="http://www.w3.org/1999/xlink" id="Layer_1" x="0" y="0" version="1.1" viewBox="0 0 1118.7 1118.7" xml:space="preserve" style="enable-background:new 0 0 1118.7 1118.7"><style type="text/css">.st0{opacity:.6}.st1,.st2{fill:none;stroke:#faa21b;stroke-width:2;stroke-miterlimit:10}.st2{stroke:#df1683}.st3{fill:#da1684}.st4{fill:#faa21b}</style><g class="st0"><circle cx="561.1" cy="557.4" r="394.7" class="st1"/><circle cx="561.1" cy="557.4" r="278.5" class="st1"/><circle cx="720.5" cy="398" r="169.6" class="st1"/><circle cx="336.7" cy="572" r="169.6" class="st2"/><circle cx="681.2" cy="836" r="112.7" class="st1"/><circle cx="681.2" cy="836" r="41.8" class="st3"/><circle cx="865.4" cy="701.5" r="41.8" class="st3"/><circle cx="865.4" cy="701.5" r="57.5" class="st2"/><circle cx="300.9" cy="738.3" r="57.5" class="st2"/><circle cx="441.8" cy="438.1" r="19.5" class="st4"/><circle cx="300.9" cy="738.3" r="19.5" class="st4"/><circle cx="714.4" cy="324.8" r="19.5" class="st3"/><circle cx="836.4" cy="521.5" r="19.5" class="st3"/><circle cx="325.9" cy="870.2" r="19.5" class="st3"/><line x1="714.4" x2="162.9" y1="324.8" y2="876.3" class="st1"/><line x1="574.8" x2="242.6" y1="623.8" y2="956" class="st1"/><line x1="462.4" x2="601.6" y1="298.5" y2="437.7" class="st1"/><line x1="865.2" x2="601.6" y1="701.3" y2="437.7" class="st1"/><circle cx="462.4" cy="298.5" r="18.6" class="st2"/><path d="M574.8,623.8c58.8-58.8,154-58.8,212.8,0" class="st1"/></g></svg>