<svg xmlns="http://www.w3.org/2000/svg" xmlns:xlink="http://www.w3.org/1999/xlink" id="Layer_1" x="0" y="0" version="1.1" viewBox="0 0 1118.7 1118.7" xml:space="preserve" style="enable-background:new 0 0 1118.7 1118.7"><style type="text/css">.st0{opacity:.6}.st1,.st2{fill:none;stroke:#faa21b;stroke-width:2;stroke-miterlimit:10}.st2{stroke:#9957a3}.st3{fill:#da1684}.st4{fill:#faa21b}.st5{fill:none;stroke:#1aaf94;stroke-width:2;stroke-miterlimit:10}.st6{fill:#00aeef}</style><g class="st0"><circle cx="561.1" cy="557.4" r="394.7" class="st1"/><circle cx="630.1" cy="488.4" r="325.6" class="st1"/><circle cx="481.6" cy="317.8" r="55.8" class="st1"/><path d="M481.6,557.6c44.5-44.5,44.5-116.5,0-161l-39.4-39.4" class="st1"/><path d="M761.1,597.2c-44.5-44.5-116.5-44.5-161,0l-39.4,39.4" class="st1"/><path d="M865.2,701.3c-102-102-267.3-102-369.2,0l-90.4,90.4" class="st1"/><circle cx="601.6" cy="437.7" r="55.8" class="st2"/><circle cx="250" cy="789.3" r="55.8" class="st3"/><circle cx="297.6" cy="900.9" r="15.1" class="st4"/><circle cx="442.2" cy="597" r="55.8" class="st4"/><circle cx="760.6" cy="596.7" r="112.7" class="st5"/><line x1="760.9" x2="242.6" y1="437.7" y2="956" class="st1"/><line x1="521.1" x2="601.6" y1="357.2" y2="437.7" class="st1"/><circle cx="840.6" cy="517.3" r="34.8" class="st6"/><line x1="815.9" x2="681.2" y1="492.7" y2="358" class="st1"/><line x1="865.2" x2="601.6" y1="701.3" y2="437.7" class="st1"/><circle cx="681.2" cy="358" r="18.6" class="st4"/><circle cx="878.4" cy="714.5" r="18.6" class="st1"/><circle cx="441.4" cy="755.5" r="18.6" class="st4"/><polyline points="336.3 412.2 481.6 557.6 246.6 792.6 162.9 876.3" class="st1"/><circle cx="323.1" cy="399.1" r="18.6" class="st4"/></g></svg>