<svg xmlns="http://www.w3.org/2000/svg" viewBox="0 0 97 97"><defs><style>.cls-1{fill:#ff931e}</style></defs><g id="Layer_2" data-name="Layer 2"><g id="Layer_2-2" data-name="Layer 2"><path d="M84,0H50.82V2H84A11,11,0,0,1,95,13V84a11,11,0,0,1-6.31,9.93L55.31,60.55,53.9,62,86.61,94.68A11.24,11.24,0,0,1,84,95H13A11,11,0,0,1,2,84V50.82H0V84A13,13,0,0,0,13,97H84A13,13,0,0,0,97,84V13A13,13,0,0,0,84,0Z" class="cls-1"/><path d="M27.2,54.4v-2A25.2,25.2,0,1,1,52.4,27.2h2A27.2,27.2,0,1,0,27.2,54.4Z" class="cls-1"/><polygon points="38.93 38.07 49.32 76.86 53.6 72.58 52.19 71.16 50.35 73 41.76 40.9 73.85 49.5 65.15 58.2 78.16 71.21 79.58 69.8 67.98 58.2 77.71 48.47 38.93 38.07" class="cls-1"/><rect width="2" height="8.53" x="27.25" y="22.13" class="cls-1" transform="translate(-10.39 27.7) rotate(-45)"/><rect width="8.53" height="2" x="20.72" y="34.69" class="cls-1"/><rect width="2" height="8.53" x="36.54" y="18.87" class="cls-1"/></g></g></svg>